<mxfile host="app.diagrams.net" modified="2021-08-30T06:43:58.595Z" agent="5.0 (Windows NT 10.0; Win64; x64) AppleWebKit/537.36 (KHTML, like Gecko) Chrome/92.0.4515.159 Safari/537.36" etag="wE3pJq5dwo0SGNevGbvu" version="15.0.3" type="github" pages="2">
  <diagram id="2z5CUgGZHuWxxsyof4mT" name="第 1 页">
    <mxGraphModel dx="2249" dy="804" grid="1" gridSize="10" guides="1" tooltips="1" connect="1" arrows="1" fold="1" page="1" pageScale="1" pageWidth="827" pageHeight="1169" math="0" shadow="0">
      <root>
        <mxCell id="0" />
        <mxCell id="1" parent="0" />
        <mxCell id="qLPg8TqJx2OJkzEQIvHe-3" value="" style="edgeStyle=orthogonalEdgeStyle;rounded=0;orthogonalLoop=1;jettySize=auto;html=1;strokeWidth=2;entryX=0.5;entryY=0;entryDx=0;entryDy=0;" parent="1" source="qLPg8TqJx2OJkzEQIvHe-1" target="qLPg8TqJx2OJkzEQIvHe-4" edge="1">
          <mxGeometry relative="1" as="geometry">
            <mxPoint x="115" y="200" as="targetPoint" />
          </mxGeometry>
        </mxCell>
        <mxCell id="qLPg8TqJx2OJkzEQIvHe-5" value="AbstractAutowireCapableBeanFactory#&lt;br&gt;createBean" style="edgeLabel;html=1;align=center;verticalAlign=middle;resizable=0;points=[];" parent="qLPg8TqJx2OJkzEQIvHe-3" vertex="1" connectable="0">
          <mxGeometry x="-0.22" relative="1" as="geometry">
            <mxPoint as="offset" />
          </mxGeometry>
        </mxCell>
        <mxCell id="qLPg8TqJx2OJkzEQIvHe-1" value="createBean" style="rounded=1;whiteSpace=wrap;html=1;fillColor=#66FF66;strokeWidth=2;" parent="1" vertex="1">
          <mxGeometry x="20" y="70" width="190" height="50" as="geometry" />
        </mxCell>
        <mxCell id="qLPg8TqJx2OJkzEQIvHe-7" value="" style="edgeStyle=orthogonalEdgeStyle;rounded=0;orthogonalLoop=1;jettySize=auto;html=1;strokeWidth=2;" parent="1" source="qLPg8TqJx2OJkzEQIvHe-4" target="qLPg8TqJx2OJkzEQIvHe-6" edge="1">
          <mxGeometry relative="1" as="geometry" />
        </mxCell>
        <mxCell id="qLPg8TqJx2OJkzEQIvHe-4" value="resolveBeforeInstantiation(beanName,mbdToUse)&lt;br&gt;第一个bean后置处理器，这里会解析aop切面信息进行缓存，&lt;b&gt;是aop和事务的关键&lt;/b&gt;" style="rounded=0;whiteSpace=wrap;html=1;strokeWidth=2;fillColor=#FFF2CC;" parent="1" vertex="1">
          <mxGeometry x="-30" y="220" width="290" height="60" as="geometry" />
        </mxCell>
        <mxCell id="qLPg8TqJx2OJkzEQIvHe-10" value="" style="edgeStyle=orthogonalEdgeStyle;rounded=0;orthogonalLoop=1;jettySize=auto;html=1;strokeWidth=2;" parent="1" source="qLPg8TqJx2OJkzEQIvHe-6" target="qLPg8TqJx2OJkzEQIvHe-9" edge="1">
          <mxGeometry relative="1" as="geometry" />
        </mxCell>
        <mxCell id="qLPg8TqJx2OJkzEQIvHe-6" value="applyBeanPostProcessorsBeforeInstantiation(targetType,beanName)" style="rounded=0;whiteSpace=wrap;html=1;strokeWidth=2;fillColor=#FFF2CC;" parent="1" vertex="1">
          <mxGeometry x="-80" y="370" width="390" height="50" as="geometry" />
        </mxCell>
        <mxCell id="qLPg8TqJx2OJkzEQIvHe-8" value="后置处理器的第一次调用，一共有9次调用。&lt;br&gt;如果bean实现了InstantiationAwareBeanPostProcessor并也实现了postProcessBeforeInstantiation方法，则会在bean创建之前先执行InstantiationAwareBeanPostProcessor接口中的postProcessBeforeInstantiation方法" style="shape=note;strokeWidth=2;fontSize=14;size=20;whiteSpace=wrap;html=1;fillColor=#fff2cc;strokeColor=#d6b656;fontColor=#666600;rounded=0;verticalAlign=middle;" parent="1" vertex="1">
          <mxGeometry x="-560" y="355" width="460" height="80" as="geometry" />
        </mxCell>
        <mxCell id="qLPg8TqJx2OJkzEQIvHe-13" value="" style="edgeStyle=orthogonalEdgeStyle;rounded=0;orthogonalLoop=1;jettySize=auto;html=1;strokeWidth=2;" parent="1" source="qLPg8TqJx2OJkzEQIvHe-9" target="qLPg8TqJx2OJkzEQIvHe-12" edge="1">
          <mxGeometry relative="1" as="geometry" />
        </mxCell>
        <mxCell id="qLPg8TqJx2OJkzEQIvHe-9" value="ibp.postProcessBeforeInstantiation(beanClass,beanName);" style="whiteSpace=wrap;html=1;rounded=0;strokeWidth=2;fillColor=#FFF2CC;" parent="1" vertex="1">
          <mxGeometry x="-80" y="480" width="390" height="60" as="geometry" />
        </mxCell>
        <mxCell id="qLPg8TqJx2OJkzEQIvHe-11" value="在这里AOP通过@EnableAspectJAutoProxy注解为我们的容器导入了AnnotationAwareAspectJAutoProxyCreator&lt;br&gt;通过@事务注解@EnableTransactionManagement注解为我们导入了InfrastructureAdvisorAutoProxyCreator；他们都是实现了BeanPostProcessor接口，InstantiationAwareBeanPostProcessor进行后置处理切面" style="shape=note;strokeWidth=2;fontSize=14;size=20;whiteSpace=wrap;html=1;fillColor=#fff2cc;strokeColor=#d6b656;fontColor=#666600;rounded=0;verticalAlign=middle;" parent="1" vertex="1">
          <mxGeometry x="-540" y="460" width="440" height="110" as="geometry" />
        </mxCell>
        <mxCell id="qLPg8TqJx2OJkzEQIvHe-12" value="" style="whiteSpace=wrap;html=1;rounded=0;strokeWidth=2;fillColor=#E5CCFF;" parent="1" vertex="1">
          <mxGeometry x="-135" y="610" width="500" height="530" as="geometry" />
        </mxCell>
        <mxCell id="iQeJDAp7LOMuk4Yl4cxe-1" value="&lt;b&gt;&lt;font color=&quot;#009900&quot;&gt;AbstractAutoProxyCreator&lt;/font&gt;&lt;/b&gt;#postProcessBeforeInstantiation" style="text;html=1;strokeColor=none;fillColor=none;align=center;verticalAlign=middle;whiteSpace=wrap;rounded=0;" parent="1" vertex="1">
          <mxGeometry x="-70" y="620" width="370" height="40" as="geometry" />
        </mxCell>
        <mxCell id="iQeJDAp7LOMuk4Yl4cxe-3" style="edgeStyle=orthogonalEdgeStyle;rounded=0;orthogonalLoop=1;jettySize=auto;html=1;exitX=1;exitY=0.5;exitDx=0;exitDy=0;entryX=1;entryY=0.5;entryDx=0;entryDy=0;strokeWidth=2;" parent="1" source="iQeJDAp7LOMuk4Yl4cxe-2" target="qLPg8TqJx2OJkzEQIvHe-1" edge="1">
          <mxGeometry relative="1" as="geometry">
            <Array as="points">
              <mxPoint x="500" y="710" />
              <mxPoint x="500" y="95" />
            </Array>
          </mxGeometry>
        </mxCell>
        <mxCell id="iQeJDAp7LOMuk4Yl4cxe-4" value="return null" style="edgeLabel;html=1;align=center;verticalAlign=middle;resizable=0;points=[];" parent="iQeJDAp7LOMuk4Yl4cxe-3" vertex="1" connectable="0">
          <mxGeometry x="-0.831" relative="1" as="geometry">
            <mxPoint x="-1" as="offset" />
          </mxGeometry>
        </mxCell>
        <mxCell id="iQeJDAp7LOMuk4Yl4cxe-5" value="是" style="edgeLabel;html=1;align=center;verticalAlign=middle;resizable=0;points=[];" parent="iQeJDAp7LOMuk4Yl4cxe-3" vertex="1" connectable="0">
          <mxGeometry x="-0.9163" y="-1" relative="1" as="geometry">
            <mxPoint as="offset" />
          </mxGeometry>
        </mxCell>
        <mxCell id="iQeJDAp7LOMuk4Yl4cxe-8" style="edgeStyle=orthogonalEdgeStyle;rounded=0;orthogonalLoop=1;jettySize=auto;html=1;exitX=0;exitY=0.5;exitDx=0;exitDy=0;entryX=0;entryY=0.5;entryDx=0;entryDy=0;strokeWidth=2;" parent="1" source="iQeJDAp7LOMuk4Yl4cxe-2" target="iQeJDAp7LOMuk4Yl4cxe-6" edge="1">
          <mxGeometry relative="1" as="geometry">
            <Array as="points">
              <mxPoint x="-70" y="710" />
              <mxPoint x="-70" y="830" />
            </Array>
          </mxGeometry>
        </mxCell>
        <mxCell id="iQeJDAp7LOMuk4Yl4cxe-9" value="否" style="edgeLabel;html=1;align=center;verticalAlign=middle;resizable=0;points=[];" parent="iQeJDAp7LOMuk4Yl4cxe-8" vertex="1" connectable="0">
          <mxGeometry x="-0.7689" y="-1" relative="1" as="geometry">
            <mxPoint as="offset" />
          </mxGeometry>
        </mxCell>
        <mxCell id="iQeJDAp7LOMuk4Yl4cxe-10" value="isInfrastructureClass(beanClass)" style="edgeLabel;html=1;align=center;verticalAlign=middle;resizable=0;points=[];" parent="iQeJDAp7LOMuk4Yl4cxe-8" vertex="1" connectable="0">
          <mxGeometry x="0.0844" y="-2" relative="1" as="geometry">
            <mxPoint x="32" y="3" as="offset" />
          </mxGeometry>
        </mxCell>
        <mxCell id="iQeJDAp7LOMuk4Yl4cxe-2" value="判断是否之前被解析过&lt;br&gt;advisedBeans.containsKey" style="rhombus;whiteSpace=wrap;html=1;" parent="1" vertex="1">
          <mxGeometry x="5" y="670" width="205" height="80" as="geometry" />
        </mxCell>
        <mxCell id="iQeJDAp7LOMuk4Yl4cxe-12" value="" style="edgeStyle=orthogonalEdgeStyle;rounded=0;orthogonalLoop=1;jettySize=auto;html=1;strokeWidth=2;" parent="1" source="iQeJDAp7LOMuk4Yl4cxe-6" target="iQeJDAp7LOMuk4Yl4cxe-7" edge="1">
          <mxGeometry relative="1" as="geometry" />
        </mxCell>
        <mxCell id="iQeJDAp7LOMuk4Yl4cxe-13" value="false" style="edgeLabel;html=1;align=center;verticalAlign=middle;resizable=0;points=[];" parent="iQeJDAp7LOMuk4Yl4cxe-12" vertex="1" connectable="0">
          <mxGeometry x="-0.3394" relative="1" as="geometry">
            <mxPoint as="offset" />
          </mxGeometry>
        </mxCell>
        <mxCell id="iQeJDAp7LOMuk4Yl4cxe-6" value="当前bean是不是Advice或者&lt;br&gt;是不是Pointcut或者&lt;br&gt;是不是Advisor或者&lt;br&gt;是不是AopInfrastructureBean&lt;br&gt;" style="rhombus;whiteSpace=wrap;html=1;" parent="1" vertex="1">
          <mxGeometry x="-40" y="780" width="295" height="100" as="geometry" />
        </mxCell>
        <mxCell id="iQeJDAp7LOMuk4Yl4cxe-7" value="&lt;span&gt;或者是不是需要跳过&lt;br&gt;shouldSkip&lt;br&gt;&lt;/span&gt;" style="rhombus;whiteSpace=wrap;html=1;" parent="1" vertex="1">
          <mxGeometry x="21.75" y="940" width="171.5" height="80" as="geometry" />
        </mxCell>
        <mxCell id="iQeJDAp7LOMuk4Yl4cxe-14" value="" style="rounded=0;whiteSpace=wrap;html=1;strokeWidth=2;" parent="1" vertex="1">
          <mxGeometry x="1160" y="840" width="390" height="320" as="geometry" />
        </mxCell>
        <mxCell id="iQeJDAp7LOMuk4Yl4cxe-15" value="&lt;font color=&quot;#009900&quot;&gt;&lt;b&gt;AspectJAwareAdvisorAutoProxyCreator&lt;/b&gt;&lt;/font&gt;#shouldSkip" style="text;html=1;strokeColor=none;fillColor=none;align=center;verticalAlign=middle;whiteSpace=wrap;rounded=0;" parent="1" vertex="1">
          <mxGeometry x="1210" y="850" width="290" height="30" as="geometry" />
        </mxCell>
        <mxCell id="iQeJDAp7LOMuk4Yl4cxe-20" value="" style="edgeStyle=orthogonalEdgeStyle;rounded=0;orthogonalLoop=1;jettySize=auto;html=1;strokeWidth=2;entryX=0.5;entryY=0;entryDx=0;entryDy=0;" parent="1" source="iQeJDAp7LOMuk4Yl4cxe-16" target="iQeJDAp7LOMuk4Yl4cxe-22" edge="1">
          <mxGeometry relative="1" as="geometry">
            <mxPoint x="1350" y="990" as="targetPoint" />
          </mxGeometry>
        </mxCell>
        <mxCell id="iQeJDAp7LOMuk4Yl4cxe-16" value="findCandidateAdvisors()&lt;br&gt;找到所有候选的Advisors（通知、前置通知、后置通知等）" style="rounded=0;whiteSpace=wrap;html=1;strokeWidth=2;" parent="1" vertex="1">
          <mxGeometry x="1220" y="890" width="260" height="50" as="geometry" />
        </mxCell>
        <mxCell id="iQeJDAp7LOMuk4Yl4cxe-24" value="" style="edgeStyle=orthogonalEdgeStyle;rounded=0;orthogonalLoop=1;jettySize=auto;html=1;strokeWidth=2;exitX=1;exitY=0.25;exitDx=0;exitDy=0;entryX=0;entryY=0.5;entryDx=0;entryDy=0;" parent="1" source="iQeJDAp7LOMuk4Yl4cxe-22" target="iQeJDAp7LOMuk4Yl4cxe-23" edge="1">
          <mxGeometry relative="1" as="geometry" />
        </mxCell>
        <mxCell id="iQeJDAp7LOMuk4Yl4cxe-32" style="edgeStyle=orthogonalEdgeStyle;rounded=0;orthogonalLoop=1;jettySize=auto;html=1;exitX=1;exitY=0.75;exitDx=0;exitDy=0;entryX=0;entryY=0.5;entryDx=0;entryDy=0;strokeWidth=2;" parent="1" source="iQeJDAp7LOMuk4Yl4cxe-22" target="iQeJDAp7LOMuk4Yl4cxe-31" edge="1">
          <mxGeometry relative="1" as="geometry" />
        </mxCell>
        <mxCell id="iQeJDAp7LOMuk4Yl4cxe-22" value="&lt;b&gt;&lt;font color=&quot;#009900&quot;&gt;AnnotationAwareAspectJAutoProxyCreator&lt;/font&gt;&lt;/b&gt;#&lt;br&gt;findCandidateAdvisors()" style="rounded=0;whiteSpace=wrap;html=1;strokeWidth=2;" parent="1" vertex="1">
          <mxGeometry x="1218.75" y="1010" width="262.5" height="60" as="geometry" />
        </mxCell>
        <mxCell id="iQeJDAp7LOMuk4Yl4cxe-26" value="" style="edgeStyle=orthogonalEdgeStyle;rounded=0;orthogonalLoop=1;jettySize=auto;html=1;strokeWidth=2;entryX=0;entryY=0.5;entryDx=0;entryDy=0;" parent="1" source="iQeJDAp7LOMuk4Yl4cxe-23" target="iQeJDAp7LOMuk4Yl4cxe-27" edge="1">
          <mxGeometry relative="1" as="geometry">
            <mxPoint x="1816.25" y="1010" as="targetPoint" />
          </mxGeometry>
        </mxCell>
        <mxCell id="iQeJDAp7LOMuk4Yl4cxe-23" value="super.findCandidateAdvisors()" style="rounded=0;whiteSpace=wrap;html=1;strokeWidth=2;fillColor=#B3FF66;" parent="1" vertex="1">
          <mxGeometry x="1880" y="920" width="262.5" height="60" as="geometry" />
        </mxCell>
        <mxCell id="iQeJDAp7LOMuk4Yl4cxe-30" value="" style="group" parent="1" vertex="1" connectable="0">
          <mxGeometry x="2230" y="930" width="100" height="40" as="geometry" />
        </mxCell>
        <mxCell id="iQeJDAp7LOMuk4Yl4cxe-27" value="&lt;font style=&quot;font-size: 20px&quot;&gt;&lt;b&gt;事务...&lt;/b&gt;&lt;/font&gt;" style="text;html=1;strokeColor=none;fillColor=none;align=center;verticalAlign=middle;whiteSpace=wrap;rounded=0;" parent="iQeJDAp7LOMuk4Yl4cxe-30" vertex="1">
          <mxGeometry width="100" height="40" as="geometry" />
        </mxCell>
        <UserObject label="" link="https://www.processon.com/view/link/5f4f4c195653bb0c71e5f9f4" id="iQeJDAp7LOMuk4Yl4cxe-28">
          <mxCell style="shape=image;html=1;verticalAlign=top;verticalLabelPosition=bottom;labelBackgroundColor=#ffffff;imageAspect=0;aspect=fixed;image=https://cdn2.iconfinder.com/data/icons/officeicons/PNG/48/Internet_link_02.png;rounded=0;fontSize=12;fontColor=#000000;strokeWidth=2;fillColor=#FFFFFF;gradientColor=#ffffff;" parent="iQeJDAp7LOMuk4Yl4cxe-30" vertex="1">
            <mxGeometry x="82" y="11" width="18" height="18" as="geometry" />
          </mxCell>
        </UserObject>
        <mxCell id="iQeJDAp7LOMuk4Yl4cxe-31" value="this.aspectJAdvisorBuilder.buildAspectJAdvisors()&lt;br&gt;查找标注了AspectJ注释的切面bean" style="rounded=0;whiteSpace=wrap;html=1;strokeWidth=2;fillColor=#FFFF00;" parent="1" vertex="1">
          <mxGeometry x="1880" y="1050" width="280" height="60" as="geometry" />
        </mxCell>
      </root>
    </mxGraphModel>
  </diagram>
  <diagram id="0Uptjd44pe4Rfi0elNdB" name="事务-解析advisor">
    <mxGraphModel dx="1054" dy="528" grid="1" gridSize="10" guides="1" tooltips="1" connect="1" arrows="1" fold="1" page="1" pageScale="1" pageWidth="827" pageHeight="1169" math="0" shadow="0">
      <root>
        <mxCell id="v8cWUvuZ9zfSbZIENwyd-0" />
        <mxCell id="v8cWUvuZ9zfSbZIENwyd-1" parent="v8cWUvuZ9zfSbZIENwyd-0" />
        <mxCell id="iQwucLWinpSZb__WJoZx-2" style="edgeStyle=orthogonalEdgeStyle;rounded=0;orthogonalLoop=1;jettySize=auto;html=1;exitX=1;exitY=0.5;exitDx=0;exitDy=0;entryX=0.5;entryY=0;entryDx=0;entryDy=0;strokeWidth=2;" edge="1" parent="v8cWUvuZ9zfSbZIENwyd-1" source="iQwucLWinpSZb__WJoZx-0" target="iQwucLWinpSZb__WJoZx-1">
          <mxGeometry relative="1" as="geometry" />
        </mxCell>
        <mxCell id="iQwucLWinpSZb__WJoZx-0" value="super.findCandidateAdvisors()" style="rounded=0;whiteSpace=wrap;html=1;fillColor=#A9C4EB;strokeWidth=2;" vertex="1" parent="v8cWUvuZ9zfSbZIENwyd-1">
          <mxGeometry x="100" y="200" width="200" height="60" as="geometry" />
        </mxCell>
        <mxCell id="iQwucLWinpSZb__WJoZx-4" value="" style="edgeStyle=orthogonalEdgeStyle;rounded=0;orthogonalLoop=1;jettySize=auto;html=1;strokeWidth=2;" edge="1" parent="v8cWUvuZ9zfSbZIENwyd-1" source="iQwucLWinpSZb__WJoZx-1" target="iQwucLWinpSZb__WJoZx-3">
          <mxGeometry relative="1" as="geometry" />
        </mxCell>
        <mxCell id="iQwucLWinpSZb__WJoZx-5" value="没有被解析&lt;br&gt;if(advisorNames == null) {" style="edgeLabel;html=1;align=center;verticalAlign=middle;resizable=0;points=[];" vertex="1" connectable="0" parent="iQwucLWinpSZb__WJoZx-4">
          <mxGeometry x="-0.26" relative="1" as="geometry">
            <mxPoint as="offset" />
          </mxGeometry>
        </mxCell>
        <mxCell id="iQwucLWinpSZb__WJoZx-1" value="是否被解析过？&lt;br&gt;这里只会解析一次，后续保存到缓存中" style="rhombus;whiteSpace=wrap;html=1;strokeWidth=2;fillColor=#A9C4EB;" vertex="1" parent="v8cWUvuZ9zfSbZIENwyd-1">
          <mxGeometry x="340" y="300" width="250" height="90" as="geometry" />
        </mxCell>
        <mxCell id="iQwucLWinpSZb__WJoZx-3" value="从容器中获取所有类型为Advisor的beanName" style="rounded=0;whiteSpace=wrap;html=1;strokeWidth=2;fillColor=#A9C4EB;" vertex="1" parent="v8cWUvuZ9zfSbZIENwyd-1">
          <mxGeometry x="342.5" y="480" width="245" height="60" as="geometry" />
        </mxCell>
        <mxCell id="iQwucLWinpSZb__WJoZx-6" value="&lt;pre style=&quot;background-color: #2b2b2b ; color: #a9b7c6 ; font-family: &amp;quot;jetbrains mono&amp;quot; ; font-size: 9.8pt&quot;&gt;&lt;span style=&quot;color: #629755 ; font-style: italic&quot;&gt;/**&lt;br&gt;&lt;/span&gt;&lt;span style=&quot;color: #629755 ; font-style: italic&quot;&gt; * cachedAdvisorBeanNames&lt;/span&gt;&lt;span style=&quot;color: #629755 ; font-style: italic ; font-family: &amp;quot;courier new&amp;quot;&quot;&gt;是用来保存我们的&lt;/span&gt;&lt;span style=&quot;color: #629755 ; font-style: italic&quot;&gt;Advisor&lt;/span&gt;&lt;span style=&quot;color: #629755 ; font-style: italic ; font-family: &amp;quot;courier new&amp;quot;&quot;&gt;全类名称的&lt;br&gt;&lt;/span&gt;&lt;span style=&quot;color: #629755 ; font-style: italic ; font-family: &amp;quot;courier new&amp;quot;&quot;&gt; &lt;/span&gt;&lt;span style=&quot;color: #629755 ; font-style: italic&quot;&gt;* &lt;/span&gt;&lt;span style=&quot;color: #629755 ; font-style: italic ; font-family: &amp;quot;courier new&amp;quot;&quot;&gt;会在第一个单实例&lt;/span&gt;&lt;span style=&quot;color: #629755 ; font-style: italic&quot;&gt;bean&lt;/span&gt;&lt;span style=&quot;color: #629755 ; font-style: italic ; font-family: &amp;quot;courier new&amp;quot;&quot;&gt;的时候会把这个&lt;/span&gt;&lt;span style=&quot;color: #629755 ; font-style: italic&quot;&gt;Advisor&lt;/span&gt;&lt;span style=&quot;color: #629755 ; font-style: italic ; font-family: &amp;quot;courier new&amp;quot;&quot;&gt;名解析出来&lt;br&gt;&lt;/span&gt;&lt;span style=&quot;color: #629755 ; font-style: italic ; font-family: &amp;quot;courier new&amp;quot;&quot;&gt; &lt;/span&gt;&lt;span style=&quot;color: #629755 ; font-style: italic&quot;&gt;*/&lt;br&gt;&lt;/span&gt;String[] advisorNames = &lt;span style=&quot;color: #cc7832&quot;&gt;this&lt;/span&gt;.&lt;span style=&quot;color: #9876aa&quot;&gt;cachedAdvisorBeanNames&lt;/span&gt;&lt;span style=&quot;color: #cc7832&quot;&gt;;&lt;/span&gt;&lt;/pre&gt;" style="text;whiteSpace=wrap;html=1;" vertex="1" parent="v8cWUvuZ9zfSbZIENwyd-1">
          <mxGeometry x="780" y="290" width="400" height="110" as="geometry" />
        </mxCell>
        <mxCell id="iQwucLWinpSZb__WJoZx-7" value="" style="endArrow=oval;dashed=1;html=1;strokeWidth=2;exitX=1;exitY=0.5;exitDx=0;exitDy=0;entryX=0;entryY=0.5;entryDx=0;entryDy=0;endFill=0;" edge="1" parent="v8cWUvuZ9zfSbZIENwyd-1" source="iQwucLWinpSZb__WJoZx-1" target="iQwucLWinpSZb__WJoZx-6">
          <mxGeometry width="50" height="50" relative="1" as="geometry">
            <mxPoint x="640" y="460" as="sourcePoint" />
            <mxPoint x="690" y="410" as="targetPoint" />
          </mxGeometry>
        </mxCell>
        <mxCell id="iQwucLWinpSZb__WJoZx-10" value="" style="group" vertex="1" connectable="0" parent="v8cWUvuZ9zfSbZIENwyd-1">
          <mxGeometry x="780" y="410" width="650" height="210" as="geometry" />
        </mxCell>
        <mxCell id="iQwucLWinpSZb__WJoZx-8" value="&lt;pre style=&quot;background-color: #2b2b2b ; color: #a9b7c6 ; font-family: &amp;quot;jetbrains mono&amp;quot; ; font-size: 9.8pt&quot;&gt;&lt;span style=&quot;color: #629755 ; font-style: italic&quot;&gt;/**&lt;br&gt;&lt;/span&gt;&lt;span style=&quot;color: #629755 ; font-style: italic&quot;&gt; * &lt;/span&gt;&lt;span style=&quot;color: #629755 ; font-style: italic ; font-family: &amp;quot;courier new&amp;quot;&quot;&gt;找到所有包含&lt;/span&gt;&lt;span style=&quot;color: #629755 ; font-style: italic&quot;&gt;Advisor&lt;/span&gt;&lt;span style=&quot;color: #629755 ; font-style: italic ; font-family: &amp;quot;courier new&amp;quot;&quot;&gt;的&lt;/span&gt;&lt;span style=&quot;color: #629755 ; font-style: italic&quot;&gt;bean&lt;/span&gt;&lt;span style=&quot;color: #629755 ; font-style: italic ; font-family: &amp;quot;courier new&amp;quot;&quot;&gt;名字&lt;br&gt;&lt;/span&gt;&lt;span style=&quot;color: #629755 ; font-style: italic ; font-family: &amp;quot;courier new&amp;quot;&quot;&gt; &lt;/span&gt;&lt;span style=&quot;color: #629755 ; font-style: italic&quot;&gt;* &lt;/span&gt;&lt;span style=&quot;color: #629755 ; font-style: italic ; font-family: &amp;quot;courier new&amp;quot;&quot;&gt;去找我们的容器中读取实现了&lt;/span&gt;&lt;span style=&quot;color: #629755 ; font-style: italic&quot;&gt;Advisor&lt;/span&gt;&lt;span style=&quot;color: #629755 ; font-style: italic ; font-family: &amp;quot;courier new&amp;quot;&quot;&gt;接口的实现类，而我们的事务注解&lt;/span&gt;&lt;span style=&quot;color: #629755 ; font-style: italic&quot;&gt;@EnableTransactionManagement&lt;br&gt;&lt;/span&gt;&lt;span style=&quot;color: #629755 ; font-style: italic&quot;&gt; * &lt;/span&gt;&lt;span style=&quot;color: #629755 ; font-style: italic ; font-family: &amp;quot;courier new&amp;quot;&quot;&gt;导入了一个叫&lt;/span&gt;&lt;span style=&quot;color: #629755 ; font-style: italic&quot;&gt;ProxyTransactionManagementConfiguration,&lt;/span&gt;&lt;span style=&quot;color: #629755 ; font-style: italic ; font-family: &amp;quot;courier new&amp;quot;&quot;&gt;而在这个配置类中配置了：&lt;br&gt;&lt;/span&gt;&lt;span style=&quot;color: #629755 ; font-style: italic ; font-family: &amp;quot;courier new&amp;quot;&quot;&gt; &lt;/span&gt;&lt;span style=&quot;color: #629755 ; font-style: italic&quot;&gt;* &lt;/span&gt;&lt;span style=&quot;color: #629755 ; font-weight: bold ; font-style: italic&quot;&gt;@Bean(name=TransactionManagementConfigUtils.TRANSACTION_ADVISOR_BEAN_NAME)&lt;br&gt;&lt;/span&gt;&lt;span style=&quot;color: #629755 ; font-weight: bold ; font-style: italic&quot;&gt; &lt;/span&gt;&lt;span style=&quot;color: #629755 ; font-style: italic&quot;&gt;* &lt;/span&gt;&lt;span style=&quot;color: #629755 ; font-weight: bold ; font-style: italic&quot;&gt;@Role(BeanDefinition.ROLE_INFRASTRUCTURE)&lt;br&gt;&lt;/span&gt;&lt;span style=&quot;color: #629755 ; font-weight: bold ; font-style: italic&quot;&gt; &lt;/span&gt;&lt;span style=&quot;color: #629755 ; font-style: italic&quot;&gt;* public BeanFactoryTransactionAttributeSourceAdvisor transactionAdvisor();&lt;br&gt;&lt;/span&gt;&lt;span style=&quot;color: #629755 ; font-style: italic&quot;&gt; * &lt;/span&gt;&lt;span style=&quot;color: #629755 ; font-style: italic ; font-family: &amp;quot;courier new&amp;quot;&quot;&gt;然后把他的名字获取出来保存到本类的属性变量&lt;/span&gt;&lt;span style=&quot;color: #629755 ; font-style: italic&quot;&gt;cachedAdvisorBeanNames&lt;/span&gt;&lt;span style=&quot;color: #629755 ; font-style: italic ; font-family: &amp;quot;courier new&amp;quot;&quot;&gt;中&lt;br&gt;&lt;/span&gt;&lt;span style=&quot;color: #629755 ; font-style: italic ; font-family: &amp;quot;courier new&amp;quot;&quot;&gt; &lt;/span&gt;&lt;span style=&quot;color: #629755 ; font-style: italic&quot;&gt;*/&lt;br&gt;&lt;/span&gt;advisorNames = BeanFactoryUtils.&lt;span style=&quot;font-style: italic&quot;&gt;beanNamesForTypeIncludingAncestors&lt;/span&gt;(&lt;br&gt;      &lt;span style=&quot;color: #cc7832&quot;&gt;this&lt;/span&gt;.&lt;span style=&quot;color: #9876aa&quot;&gt;beanFactory&lt;/span&gt;&lt;span style=&quot;color: #cc7832&quot;&gt;, &lt;/span&gt;Advisor.&lt;span style=&quot;color: #cc7832&quot;&gt;class, true, false&lt;/span&gt;)&lt;span style=&quot;color: #cc7832&quot;&gt;;&lt;/span&gt;&lt;/pre&gt;" style="text;whiteSpace=wrap;html=1;" vertex="1" parent="iQwucLWinpSZb__WJoZx-10">
          <mxGeometry width="650" height="210" as="geometry" />
        </mxCell>
        <mxCell id="iQwucLWinpSZb__WJoZx-9" value="" style="rounded=0;whiteSpace=wrap;html=1;strokeWidth=2;fillColor=none;strokeColor=#CC0000;" vertex="1" parent="iQwucLWinpSZb__WJoZx-10">
          <mxGeometry x="130" y="180" width="90" height="20" as="geometry" />
        </mxCell>
        <mxCell id="iQwucLWinpSZb__WJoZx-11" value="" style="endArrow=oval;dashed=1;html=1;strokeWidth=2;exitX=1;exitY=0.5;exitDx=0;exitDy=0;entryX=0;entryY=0.5;entryDx=0;entryDy=0;endFill=0;" edge="1" parent="v8cWUvuZ9zfSbZIENwyd-1" source="iQwucLWinpSZb__WJoZx-3" target="iQwucLWinpSZb__WJoZx-8">
          <mxGeometry width="50" height="50" relative="1" as="geometry">
            <mxPoint x="590" y="524.5" as="sourcePoint" />
            <mxPoint x="780" y="524.5" as="targetPoint" />
          </mxGeometry>
        </mxCell>
        <mxCell id="iQwucLWinpSZb__WJoZx-12" value="&lt;pre style=&quot;background-color: rgb(43 , 43 , 43) ; color: rgb(169 , 183 , 198) ; font-family: &amp;#34;jetbrains mono&amp;#34; ; font-size: 9.8pt ; line-height: 100%&quot;&gt;&lt;span style=&quot;color: #cc7832&quot;&gt;this&lt;/span&gt;.&lt;span style=&quot;color: #9876aa&quot;&gt;cachedAdvisorBeanNames &lt;/span&gt;= advisorNames&lt;span style=&quot;color: #cc7832&quot;&gt;;&lt;/span&gt;&lt;/pre&gt;" style="text;whiteSpace=wrap;html=1;spacing=0;spacingTop=0;labelPosition=center;verticalLabelPosition=middle;align=center;verticalAlign=middle;horizontal=1;" vertex="1" parent="v8cWUvuZ9zfSbZIENwyd-1">
          <mxGeometry x="953" y="700" width="304" height="40" as="geometry" />
        </mxCell>
        <mxCell id="iQwucLWinpSZb__WJoZx-13" value="" style="edgeStyle=orthogonalEdgeStyle;rounded=0;orthogonalLoop=1;jettySize=auto;html=1;endArrow=classic;endFill=1;strokeWidth=2;dashed=1;" edge="1" parent="v8cWUvuZ9zfSbZIENwyd-1" source="iQwucLWinpSZb__WJoZx-8" target="iQwucLWinpSZb__WJoZx-12">
          <mxGeometry relative="1" as="geometry" />
        </mxCell>
        <mxCell id="iQwucLWinpSZb__WJoZx-14" value="加入到缓存中，下次直接从缓存中获取" style="edgeLabel;html=1;align=center;verticalAlign=middle;resizable=0;points=[];" vertex="1" connectable="0" parent="iQwucLWinpSZb__WJoZx-13">
          <mxGeometry x="-0.3333" relative="1" as="geometry">
            <mxPoint as="offset" />
          </mxGeometry>
        </mxCell>
      </root>
    </mxGraphModel>
  </diagram>
</mxfile>
